<?xml version="1.0" encoding="utf-8"?>
<!-- Generator: Adobe Illustrator 23.0.0, SVG Export Plug-In . SVG Version: 6.00 Build 0)  -->
<svg version="1.1" id="Layer_1" xmlns="http://www.w3.org/2000/svg" xmlns:xlink="http://www.w3.org/1999/xlink" x="0px" y="0px"
	 viewBox="0 0 32 32" style="enable-background:new 0 0 32 32;" xml:space="preserve">
<style type="text/css">
	.st0{fill:#459B80;}
</style>
<g>
	<path class="st0" d="M14.9,13.3c0.3-0.5,0.6-1.2,0.6-2.1c0-0.6-0.1-1.1-0.2-1.7c-0.1-0.6-0.3-1.2-0.6-1.7s-0.6-1-1.1-1.4
		c-0.5-0.3-1-0.6-1.6-0.6c-0.8,0-1.4,0.3-1.9,0.9C9.5,7.4,9.3,8.1,9.3,9c0,0.4,0.1,0.8,0.1,1.3s0.3,0.9,0.5,1.4
		c0.2,0.5,0.5,0.9,0.8,1.2c0.3,0.3,0.6,0.7,1,0.9c0.4,0.2,0.8,0.3,1.3,0.3C13.9,14.1,14.5,13.8,14.9,13.3z"/>
	<path class="st0" d="M16.8,21.6c-0.1-0.1-0.1-0.3-0.2-0.5c-0.1-0.1-0.2-0.3-0.3-0.4s-0.2-0.2-0.3-0.4c-0.1-0.1-0.3-0.3-0.3-0.3
		c-0.1-0.1-0.2-0.2-0.4-0.3c-0.2-0.1-0.3-0.3-0.4-0.3c-0.1,0-0.2-0.1-0.4-0.3c-0.2-0.1-0.3-0.3-0.4-0.3c-0.1,0-0.3,0-0.7,0
		c-0.5,0-1,0-1.4,0.1c-0.5,0.1-1,0.1-1.4,0.3c-0.5,0.1-0.9,0.3-1.3,0.6c-0.4,0.3-0.7,0.6-0.9,1c-0.2,0.4-0.3,0.9-0.3,1.4
		c0,0.6,0.1,1.2,0.5,1.6c0.3,0.5,0.8,0.8,1.2,1.1s1,0.5,1.6,0.6c0.6,0.1,1.1,0.2,1.7,0.2s1-0.1,1.5-0.1c0.5-0.1,0.9-0.3,1.3-0.6
		c0.4-0.2,0.8-0.6,1-1c0.2-0.4,0.3-0.9,0.3-1.4c0-0.2,0-0.3-0.1-0.6C16.9,22,16.9,21.7,16.8,21.6z"/>
	<path class="st0" d="M16,0C7.2,0,0,7.2,0,16s7.2,16,16,16s16-7.2,16-16S24.8,0,16,0z M17,25.1c-1.3,1.2-3.2,1.7-5.6,1.7
		c-0.6,0-1-0.1-1.6-0.1c-0.6-0.1-1.1-0.2-1.6-0.4c-0.6-0.2-1-0.5-1.4-0.8c-0.4-0.3-0.8-0.7-1-1.2c-0.2-0.4-0.3-0.9-0.3-1.5
		c0-0.6,0.1-1.1,0.5-1.8c0.3-0.6,0.7-1,1.2-1.4c0.6-0.4,1.2-0.8,1.9-1c0.7-0.2,1.4-0.3,2.1-0.5c0.6-0.1,1.3-0.1,2-0.2
		c-0.6-0.8-0.8-1.4-0.8-2c0-0.1,0-0.2,0-0.3c0-0.1,0.1-0.2,0.1-0.3s0.1-0.1,0.1-0.3c0.1-0.1,0.1-0.2,0.1-0.3
		c-0.3,0.1-0.7,0.1-0.9,0.1c-1.3,0-2.4-0.4-3.4-1.3s-1.4-1.9-1.4-3.2C6.9,9.1,7.3,8,8.1,7C9,6.1,10,5.5,11.2,5.2
		C12.1,5,12.9,5,13.7,5h5.8l-1.8,1h-1.8c0.6,0.4,1.1,1,1.4,1.7c0.3,0.7,0.6,1.4,0.6,2.2c0,0.6-0.1,1.2-0.3,1.7
		c-0.2,0.5-0.5,0.9-0.8,1.2c-0.3,0.3-0.6,0.6-0.9,0.8c-0.3,0.3-0.6,0.6-0.8,0.8C15,14.7,15,15,15,15.3c0,0.2,0.1,0.5,0.2,0.7
		c0.1,0.2,0.3,0.4,0.6,0.6c0.2,0.2,0.5,0.4,0.8,0.6c0.3,0.2,0.6,0.5,0.8,0.8c0.3,0.3,0.6,0.6,0.8,0.9c0.2,0.3,0.4,0.7,0.6,1.1
		c0.1,0.4,0.2,0.9,0.2,1.4C18.8,22.8,18.2,24.1,17,25.1z M24,10.1v3.4h-1.7v-3.4h-3.4V8.3h3.4V5H24v3.4h3.4v1.7H24z"/>
</g>
</svg>
