<?xml version="1.0" encoding="utf-8"?>
<!-- Generator: Adobe Illustrator 23.0.1, SVG Export Plug-In . SVG Version: 6.00 Build 0)  -->
<svg version="1.1" id="Layer_1" xmlns="http://www.w3.org/2000/svg" xmlns:xlink="http://www.w3.org/1999/xlink" x="0px" y="0px"
	 viewBox="0 0 56.7 56.7" style="enable-background:new 0 0 56.7 56.7;" xml:space="preserve">
<style type="text/css">
	.st0{fill:#459B80;}
</style>
<path class="st0" d="M28.3,0C12.7,0,0,12.7,0,28.3s12.7,28.3,28.3,28.3S56.7,44,56.7,28.3S44,0,28.3,0z M35.6,28.4h-4.1
	c0,6.7,0,14.9,0,14.9h-6.2c0,0,0-8.1,0-14.9h-3v-5.2h3v-3.4c0-2.4,1.2-6.2,6.2-6.2H36v5.1c0,0-2.7,0-3.3,0c-0.6,0-1.3,0.2-1.3,1.4
	v3.1h4.7L35.6,28.4z"/>
</svg>
