<?xml version="1.0" encoding="utf-8"?>
<!-- Generator: Adobe Illustrator 23.0.1, SVG Export Plug-In . SVG Version: 6.00 Build 0)  -->
<svg version="1.1" id="Layer_1" xmlns="http://www.w3.org/2000/svg" xmlns:xlink="http://www.w3.org/1999/xlink" x="0px" y="0px"
	 viewBox="0 0 32 32" style="enable-background:new 0 0 32 32;" xml:space="preserve">
<style type="text/css">
	.st0{fill:#459B80;}
</style>
<g>
	<path class="st0" d="M16,0C7.2,0,0,7.2,0,16s7.2,16,16,16s16-7.2,16-16S24.8,0,16,0z M16.8,22.5c-0.9,0.9-2.3,1.2-4,1.2
		c-0.4,0-0.7-0.1-1.2-0.1c-0.4-0.1-0.8-0.1-1.2-0.3c-0.4-0.1-0.7-0.4-1-0.6c-0.3-0.2-0.6-0.5-0.7-0.9c-0.1-0.3-0.2-0.7-0.2-1.1
		c0-0.4,0.1-0.8,0.4-1.3c0.2-0.4,0.5-0.7,0.9-1c0.4-0.3,0.9-0.6,1.4-0.7c0.5-0.1,1-0.2,1.5-0.4c0.4-0.1,0.9-0.1,1.4-0.1
		c-0.4-0.6-0.6-1-0.6-1.4c0-0.1,0-0.1,0-0.2s0.1-0.1,0.1-0.2c0-0.1,0.1-0.1,0.1-0.2c0.1-0.1,0.1-0.1,0.1-0.2
		c-0.2,0.1-0.5,0.1-0.7,0.1c-0.9,0-1.7-0.3-2.5-0.9c-0.7-0.7-1-1.4-1-2.3c-0.1-0.9,0.2-1.7,0.8-2.4c0.7-0.7,1.4-1.1,2.2-1.3
		C13.3,8,13.9,8,14.5,8h4.2l-1.3,0.7h-1.3c0.4,0.3,0.8,0.7,1,1.2c0.2,0.5,0.4,1,0.4,1.6c0,0.4-0.1,0.9-0.2,1.2
		c-0.1,0.4-0.4,0.7-0.6,0.9c-0.2,0.2-0.4,0.4-0.7,0.6c-0.2,0.2-0.4,0.4-0.6,0.6c-0.1,0.2-0.1,0.4-0.1,0.7c0,0.1,0.1,0.4,0.1,0.5
		c0.1,0.1,0.2,0.3,0.4,0.4c0.1,0.1,0.4,0.3,0.6,0.4c0.2,0.1,0.4,0.4,0.6,0.6c0.2,0.2,0.4,0.4,0.6,0.7c0.1,0.2,0.3,0.5,0.4,0.8
		c0.1,0.3,0.1,0.7,0.1,1C18.1,20.9,17.7,21.8,16.8,22.5z M24.4,11.7h-2.5v2.5h-1.2v-2.5h-2.5v-1.3h2.5V8h1.2v2.5h2.5V11.7z"/>
	<path class="st0" d="M15.8,12.5c0-0.4-0.1-0.8-0.1-1.2c-0.1-0.4-0.2-0.9-0.4-1.2c-0.2-0.4-0.4-0.7-0.8-1c-0.4-0.2-0.7-0.4-1.2-0.4
		c-0.6,0-1,0.2-1.4,0.7c-0.4,0.5-0.6,1-0.6,1.7c0,0.3,0.1,0.6,0.1,0.9c0,0.4,0.2,0.7,0.4,1c0.1,0.4,0.4,0.7,0.6,0.9
		c0.2,0.2,0.4,0.5,0.7,0.7s0.6,0.2,0.9,0.2c0.7,0,1.1-0.2,1.4-0.6C15.5,13.7,15.8,13.2,15.8,12.5z"/>
	<path class="st0" d="M16.7,20c-0.1-0.1-0.1-0.2-0.1-0.4c-0.1-0.1-0.1-0.2-0.2-0.3c-0.1-0.1-0.1-0.1-0.2-0.3
		c-0.1-0.1-0.2-0.2-0.2-0.2c-0.1-0.1-0.1-0.1-0.3-0.2c-0.1-0.1-0.2-0.2-0.3-0.2s-0.1-0.1-0.3-0.2c-0.1-0.1-0.2-0.2-0.3-0.2
		c-0.1,0-0.2,0-0.5,0c-0.4,0-0.7,0-1,0.1c-0.4,0.1-0.7,0.1-1,0.2c-0.4,0.1-0.7,0.2-0.9,0.4c-0.3,0.2-0.5,0.4-0.7,0.7
		c-0.1,0.3-0.2,0.7-0.2,1c0,0.4,0.1,0.9,0.4,1.2c0.2,0.4,0.6,0.6,0.9,0.8c0.3,0.2,0.7,0.4,1.2,0.4c0.4,0.1,0.8,0.1,1.2,0.1
		c0.4,0,0.7-0.1,1.1-0.1c0.4-0.1,0.7-0.2,0.9-0.4c0.3-0.1,0.6-0.4,0.7-0.7c0.1-0.3,0.2-0.7,0.2-1c0-0.1,0-0.2-0.1-0.4
		C16.8,20.3,16.8,20.1,16.7,20z"/>
</g>
</svg>
