<?xml version="1.0" encoding="utf-8"?>
<!-- Generator: Adobe Illustrator 23.0.0, SVG Export Plug-In . SVG Version: 6.00 Build 0)  -->
<svg version="1.1" id="Layer_1" xmlns="http://www.w3.org/2000/svg" xmlns:xlink="http://www.w3.org/1999/xlink" x="0px" y="0px"
	 viewBox="0 0 56.7 56.7" style="enable-background:new 0 0 56.7 56.7;" xml:space="preserve">
<style type="text/css">
	.st0{fill:#459B80;}
</style>
<path class="st0" d="M28.3,0C12.7,0,0,12.7,0,28.3s12.7,28.3,28.3,28.3S56.7,44,56.7,28.3S44,0,28.3,0z M38.4,28.4h-6
	c0,9.6,0,21.5,0,21.5h-8.9c0,0,0-11.8,0-21.5h-4.3v-7.6h4.3v-4.9c0-3.5,1.7-9,9-9l6.6,0v7.4c0,0-4,0-4.8,0c-0.8,0-1.9,0.4-1.9,2.1
	v4.5h6.8L38.4,28.4z"/>
</svg>
