<?xml version="1.0" encoding="utf-8"?>
<!-- Generator: Adobe Illustrator 23.0.1, SVG Export Plug-In . SVG Version: 6.00 Build 0)  -->
<svg version="1.1" id="Layer_1" xmlns="http://www.w3.org/2000/svg" xmlns:xlink="http://www.w3.org/1999/xlink" x="0px" y="0px"
	 viewBox="0 0 32 32" style="enable-background:new 0 0 32 32;" xml:space="preserve">
<style type="text/css">
	.st0{fill:#459B80;}
</style>
<path class="st0" d="M16,0C7.2,0,0,7.2,0,16s7.2,16,16,16s16-7.2,16-16S24.8,0,16,0z M21.9,12.9c0,0.1,0,0.2,0,0.4
	c0,4-3,8.7-8.7,8.7c-1.8,0-3.4-0.5-4.7-1.4c0.2,0.1,0.5,0.1,0.7,0.1c1.4,0,2.8-0.5,3.9-1.3c-1.3-0.1-2.5-0.9-2.9-2.2
	c0.2,0,0.4,0,0.6,0c0.2,0,0.5-0.1,0.8-0.1c-1.4-0.2-2.5-1.5-2.5-3V14c0.4,0.2,0.9,0.4,1.4,0.4c-0.9-0.5-1.4-1.5-1.4-2.6
	c0-0.6,0.2-1,0.4-1.6c1.6,1.9,3.8,3,6.4,3.2c-0.1-0.2-0.1-0.5-0.1-0.7c0-1.8,1.4-3,3-3c0.9,0,1.7,0.4,2.3,1c0.7-0.2,1.4-0.4,1.9-0.7
	c-0.2,0.7-0.7,1.3-1.4,1.7c0.6-0.1,1.2-0.2,1.8-0.5C23.1,11.9,22.5,12.6,21.9,12.9z"/>
</svg>
