<?xml version="1.0" encoding="utf-8"?>
<!-- Generator: Adobe Illustrator 23.0.0, SVG Export Plug-In . SVG Version: 6.00 Build 0)  -->
<svg version="1.1" id="Layer_1" xmlns="http://www.w3.org/2000/svg" xmlns:xlink="http://www.w3.org/1999/xlink" x="0px" y="0px"
	 viewBox="0 0 32 32" style="enable-background:new 0 0 32 32;" xml:space="preserve">
<style type="text/css">
	.st0{fill:#459B80;}
</style>
<path class="st0" d="M16,0C7.2,0,0,7.2,0,16s7.2,16,16,16s16-7.2,16-16S24.8,0,16,0z M25.1,11.4c0,0.1,0,0.4,0,0.6
	c0,6.2-4.7,13.4-13.4,13.4c-2.7,0-5.2-0.8-7.2-2.2c0.4,0.1,0.8,0.1,1.1,0.1c2.2,0,4.3-0.7,5.9-2c-2-0.1-3.8-1.4-4.4-3.3
	C7.4,18,7.7,18,8,18c0.4,0,0.8-0.1,1.2-0.1c-2.2-0.4-3.8-2.3-3.8-4.6v-0.1c0.6,0.4,1.4,0.6,2.2,0.6C6.3,13,5.4,11.5,5.4,9.9
	c0-0.9,0.2-1.6,0.6-2.4c2.4,2.9,5.8,4.7,9.8,4.9c-0.1-0.4-0.1-0.7-0.1-1.1c0-2.7,2.2-4.7,4.7-4.7c1.3,0,2.6,0.6,3.4,1.5
	c1.1-0.2,2.1-0.6,3-1.1c-0.4,1.1-1.1,2-2.1,2.6c1-0.1,1.9-0.4,2.7-0.7C26.8,9.8,26,10.7,25.1,11.4z"/>
</svg>
