<?xml version="1.0" encoding="utf-8"?>
<!-- Generator: Adobe Illustrator 23.0.0, SVG Export Plug-In . SVG Version: 6.00 Build 0)  -->
<svg version="1.1" id="Layer_1" xmlns="http://www.w3.org/2000/svg" xmlns:xlink="http://www.w3.org/1999/xlink" x="0px" y="0px"
	 viewBox="0 0 120 87" style="enable-background:new 0 0 120 87;" xml:space="preserve">
<style type="text/css">
	.st0{fill:#459B80;}
	.st1{fill:#FFFFFF;}
</style>
<path class="st1" d="M24.99,44.84c0,10.9-2.26,17.36-15.16,17.36c-2.69,0-4.86-0.26-6.18-0.49V51.2c0.98,0.09,2.13,0.23,3.38,0.23
	c4.03,0,4.57-1.68,4.57-5.31V3.01h13.38V44.84z"/>
<path class="st1" d="M64.74,43.09c0-9.07,0.14-21.14,0.32-28.18h-0.38c-1.71,12.17-4.15,31.9-6.77,46.87H47.07
	C45.03,46.21,42.6,26.57,41,14.77h-0.44c0.28,6.86,0.54,18.65,0.54,28.76v18.25H29.31V3.43h18.87c1.92,12.18,3.83,26.83,4.71,35.01
	h0.27c1.12-8.69,3.31-21.36,5.51-35.01h18.68v58.35H64.74V43.09z"/>
<path class="st1" d="M92.69,44.88c0.34,4.79,1.7,8.09,5.71,8.09c3.89,0,5.14-2.62,5.14-5.94c0-4.04-2.03-6.41-8.89-9.93
	c-10.14-5.23-13.96-9.65-13.96-18.23c0-9.98,6.1-16.53,17.66-16.53c13.6,0,17.49,8.5,17.6,17.46h-12.91
	c-0.22-4.06-0.97-7.56-4.77-7.56c-2.98,0-4.32,1.93-4.32,5.19c0,3.34,1.3,5.07,7.65,8.24C112.41,31.12,117,35.73,117,45.54
	c0,9.64-5.64,17.33-18.73,17.33c-14.19,0-18.52-8.09-18.8-17.99H92.69z"/>
<g>
	<g>
		<path class="st1" d="M5.61,68.21h3.36c3.33,0,4.14,1.73,4.14,4.65v6.03c0,2.4-0.41,5.05-4.15,5.05H5.61V68.21z M8.04,81.87h0.78
			c1.59,0,1.84-1.03,1.84-2.65v-6.55c0-1.45-0.25-2.37-1.85-2.37H8.04V81.87z"/>
		<path class="st1" d="M17.05,79.72l-0.55,4.2h-2.46l2.53-15.72h3.42l2.63,15.72h-2.53l-0.62-4.2H17.05z M19.18,77.5
			c-0.36-2.67-0.7-5.2-0.88-6.98h-0.09c-0.07,1.29-0.54,4.66-0.85,6.98H19.18z"/>
		<path class="st1" d="M25.55,79.3v0.97c0,1.17,0.35,1.82,1.27,1.82c0.94,0,1.19-0.89,1.19-1.92c0-1.69-0.36-2.21-2.05-3.54
			c-1.69-1.33-2.59-2.19-2.59-4.52c0-2.07,0.63-4.16,3.46-4.16c2.9,0,3.35,2.07,3.35,3.78v0.84h-2.4V71.8
			c0-1.09-0.18-1.76-0.99-1.76c-0.79,0-1,0.69-1,1.73c0,1.11,0.21,1.65,1.59,2.67c2.35,1.74,3.07,2.75,3.07,5.38
			c0,2.23-0.78,4.34-3.71,4.34c-2.91,0-3.62-1.85-3.62-3.92V79.3H25.55z"/>
		<path class="st1" d="M32,68.21h2.42v6.21h2.61v-6.21h2.42v15.72h-2.42v-7.28h-2.61v7.28H32V68.21z"/>
		<path class="st1" d="M41.58,68.21h3.23c2.72,0,3.77,1.27,3.77,3.58v0.58c0,2.23-0.77,2.87-1.46,3.16c0.7,0.28,1.75,0.87,1.75,3.15
			v1.19c0,2.66-1.11,4.06-3.84,4.06h-3.44V68.21z M44.53,74.61c1.36,0,1.76-0.42,1.76-1.98v-0.61c0-1.3-0.46-1.81-1.62-1.81h-0.75
			v4.4H44.53z M43.92,81.95h0.81c1.4,0,1.75-0.62,1.75-2.14v-1.05c0-1.53-0.39-2.19-1.93-2.19h-0.63V81.95z"/>
		<path class="st1" d="M57.81,72.38v7.34c0,3.01-1.28,4.44-3.94,4.44c-2.55,0-3.71-1.46-3.71-4.39v-7.4c0-3.01,1.52-4.38,3.86-4.38
			C56.4,67.98,57.81,69.36,57.81,72.38z M52.63,72.15v7.91c0,1.31,0.47,1.92,1.35,1.92c0.94,0,1.36-0.57,1.36-1.95v-7.89
			c0-1.25-0.38-1.94-1.37-1.94C53.1,70.19,52.63,70.82,52.63,72.15z"/>
		<path class="st1" d="M61.72,79.72l-0.55,4.2h-2.46l2.53-15.72h3.42l2.63,15.72h-2.53l-0.62-4.2H61.72z M63.85,77.5
			c-0.36-2.67-0.7-5.2-0.88-6.98h-0.09c-0.07,1.29-0.54,4.66-0.85,6.98H63.85z"/>
		<path class="st1" d="M70.97,76.9v7.03h-2.42V68.21h3.36c2.39,0,3.8,0.96,3.8,3.79v0.6c0,2.42-0.99,3.03-1.6,3.28
			c0.92,0.43,1.44,1.09,1.44,3.22c0,1.32-0.02,3.88,0.14,4.83h-2.34c-0.21-0.95-0.17-3.53-0.17-4.67c0-1.92-0.25-2.36-1.65-2.36
			H70.97z M70.97,74.9h0.56c1.28,0,1.75-0.48,1.75-2.19v-0.54c0-1.21-0.25-1.95-1.63-1.95h-0.69V74.9z"/>
		<path class="st1" d="M77.38,68.21h3.36c3.33,0,4.14,1.73,4.14,4.65v6.03c0,2.4-0.41,5.05-4.15,5.05h-3.36V68.21z M79.8,81.87h0.78
			c1.59,0,1.84-1.03,1.84-2.65v-6.55c0-1.45-0.25-2.37-1.85-2.37H79.8V81.87z"/>
		<path class="st1" d="M91.89,79.72l-0.55,4.2h-2.46l2.53-15.72h3.42l2.63,15.72h-2.53l-0.62-4.2H91.89z M94.03,77.5
			c-0.36-2.67-0.7-5.2-0.88-6.98h-0.09c-0.07,1.29-0.54,4.66-0.85,6.98H94.03z"/>
		<path class="st1" d="M98.72,68.21h3.5c2.5,0,3.77,1.23,3.77,4.01v0.93c0,2.59-0.93,4.32-3.9,4.32h-0.94v6.46h-2.42V68.21z
			 M101.15,75.49h0.66c1.51,0,1.77-0.88,1.77-2.42V72.3c0-1.14-0.21-2.08-1.55-2.08h-0.88V75.49z"/>
		<path class="st1" d="M107.45,68.21h3.5c2.5,0,3.77,1.23,3.77,4.01v0.93c0,2.59-0.93,4.32-3.9,4.32h-0.94v6.46h-2.42V68.21z
			 M109.88,75.49h0.66c1.51,0,1.77-0.88,1.77-2.42V72.3c0-1.14-0.21-2.08-1.55-2.08h-0.88V75.49z"/>
	</g>
</g>
</svg>
